<svg version="1.1" id="Layer_1" xmlns="http://www.w3.org/2000/svg" x="0" y="0" viewBox="0 0 68.7 72" xml:space="preserve"><style>.st0{fill:#fff}</style><g id="Main"><g id="Desktop---Medium-Copy-15" transform="translate(-40 -36)"><g id="logo_x2F_main-white" transform="translate(40 36)"><g id="Logo"><path id="Path" class="st0" d="M0 0v30.4h22.5v14.5H0v7.9h30.5V22.4H8V7.9h52.7v37H38.2v7.9h30.5V0z"/><path id="Path_1_" class="st0" d="M4.1 65.4H2.6c-.1 0-.2 0-.3-.1-.1-.1-.1-.1-.1-.2v-2c0-.2.1-.2.3-.2h2.6l-.4-2.1H1.6c-.4 0-.9.1-1.2.4-.3.3-.4.6-.4 1V66c0 .2 0 .4.1.7.1.2.2.3.3.4.1.1.3.2.4.2h2c.1 0 .1.1.1.3v2c0 .2-.1.2-.3.2H.2l.4 2.1h2.9c.7 0 1.1-.1 1.4-.4.3-.3.4-.7.4-1.3v-3.6c0-.3-.1-.6-.3-.9-.3-.2-.6-.3-.9-.3z"/><path id="Path_2_" class="st0" d="M7.9 60.8l-.6 2.1h1.6v9h2.4v-9h1.5l-.6-2.1z"/><path id="Path_3_" class="st0" d="M20 62.9l-.4-2.1h-4.5v11.1h4.4l.4-2.1h-2.4v-2.4h1.9v-1.9h-1.9v-2.6z"/><path id="Path_4_" class="st0" d="M27.4 62.9l-.4-2.1h-4.6v11.1h4.5l.4-2.1h-2.5v-2.4h1.9v-1.9h-1.9v-2.6z"/><path id="Path_5_" class="st0" d="M32.2 60.8h-2.4v11.1h4.3l.4-2.1h-2.3z"/><path id="Shape" class="st0" d="M41.4 60.8h-4.6v11.1H41c.7 0 1.1-.1 1.4-.4.3-.3.4-.7.4-1.3v-8c0-.4-.1-.7-.3-1-.3-.3-.7-.4-1.1-.4zm-.9 8.9v.2c-.1 0-.1.1-.2.1h-1.1v-7.2h1.1c.1 0 .1 0 .2.1 0 0 .1.1.1.2l-.1 6.6z"/><path id="Path_6_" class="st0" d="M49 69.7v.2s-.1.1-.2.1H48c-.1 0-.2 0-.2-.1v-9.1h-2.4v9.4c0 .6.1 1 .4 1.3.3.3.7.4 1.4.4h2.4c.7 0 1.1-.1 1.4-.4.3-.3.4-.7.4-1.3v-9.4H49v8.9z"/><path id="Path_7_" class="st0" d="M60.1 60.8h-2.3l-.9 3.9-.9-3.9h-2.3l1.6 5.3-1.7 5.8H56l.9-3.9.9 3.9h2.3l-1.6-5.8z"/><path id="Path_8_" class="st0" d="M68.6 60.8h-2.3l-.9 3.9-.8-3.9h-2.4l1.6 5.3-1.6 5.8h2.3l.9-3.9.9 3.9h2.4L67 66.1z"/></g></g></g></g><script xmlns="" id="bw-fido2-page-script"/></svg>