<svg id="visual" viewBox="0 0 960 540" width="960" height="540" xmlns="http://www.w3.org/2000/svg" xmlns:xlink="http://www.w3.org/1999/xlink" version="1.1"><path d="M0 465L16 468C32 471 64 477 96 476.5C128 476 160 469 192 466.2C224 463.3 256 464.7 288 463.7C320 462.7 352 459.3 384 462.2C416 465 448 474 480 477.5C512 481 544 479 576 479.8C608 480.7 640 484.3 672 484.8C704 485.3 736 482.7 768 481.7C800 480.7 832 481.3 864 477.3C896 473.3 928 464.7 944 460.3L960 456L960 541L944 541C928 541 896 541 864 541C832 541 800 541 768 541C736 541 704 541 672 541C640 541 608 541 576 541C544 541 512 541 480 541C448 541 416 541 384 541C352 541 320 541 288 541C256 541 224 541 192 541C160 541 128 541 96 541C64 541 32 541 16 541L0 541Z" fill="#7e7868"></path><path d="M0 499L16 495C32 491 64 483 96 479C128 475 160 475 192 477.3C224 479.7 256 484.3 288 487.7C320 491 352 493 384 491.5C416 490 448 485 480 483.7C512 482.3 544 484.7 576 487.5C608 490.3 640 493.7 672 491.7C704 489.7 736 482.3 768 481.5C800 480.7 832 486.3 864 488.5C896 490.7 928 489.3 944 488.7L960 488L960 541L944 541C928 541 896 541 864 541C832 541 800 541 768 541C736 541 704 541 672 541C640 541 608 541 576 541C544 541 512 541 480 541C448 541 416 541 384 541C352 541 320 541 288 541C256 541 224 541 192 541C160 541 128 541 96 541C64 541 32 541 16 541L0 541Z" fill="#6a6658"></path><path d="M0 491L16 491.5C32 492 64 493 96 493.8C128 494.7 160 495.3 192 496.5C224 497.7 256 499.3 288 500.8C320 502.3 352 503.7 384 503.3C416 503 448 501 480 500.3C512 499.7 544 500.3 576 500.5C608 500.7 640 500.3 672 499.5C704 498.7 736 497.3 768 497.3C800 497.3 832 498.7 864 498.7C896 498.7 928 497.3 944 496.7L960 496L960 541L944 541C928 541 896 541 864 541C832 541 800 541 768 541C736 541 704 541 672 541C640 541 608 541 576 541C544 541 512 541 480 541C448 541 416 541 384 541C352 541 320 541 288 541C256 541 224 541 192 541C160 541 128 541 96 541C64 541 32 541 16 541L0 541Z" fill="#585449"></path><path d="M0 510L16 510.2C32 510.3 64 510.7 96 511.3C128 512 160 513 192 512.8C224 512.7 256 511.3 288 511.8C320 512.3 352 514.7 384 517C416 519.3 448 521.7 480 520.7C512 519.7 544 515.3 576 513C608 510.7 640 510.3 672 510.2C704 510 736 510 768 512.3C800 514.7 832 519.3 864 519.7C896 520 928 516 944 514L960 512L960 541L944 541C928 541 896 541 864 541C832 541 800 541 768 541C736 541 704 541 672 541C640 541 608 541 576 541C544 541 512 541 480 541C448 541 416 541 384 541C352 541 320 541 288 541C256 541 224 541 192 541C160 541 128 541 96 541C64 541 32 541 16 541L0 541Z" fill="#46433a"></path></svg>